<svg width="9" height="5" viewBox="0 0 9 5" fill="none" xmlns="http://www.w3.org/2000/svg">
<path d="M4.47705 4.99933C4.37935 4.99357 4.28697 4.95052 4.21544 4.87862L0.134242 0.788671C-0.0354 0.617813 -0.0456239 0.330233 0.11135 0.146071C0.268319 -0.0385451 0.533618 -0.0496449 0.703249 0.121219L4.49991 3.92715L8.29657 0.121219C8.37792 0.0391181 8.48624 -0.00437615 8.59743 0.00050906C8.70821 0.00494699 8.81326 0.0573137 8.88847 0.146066C8.9641 0.234379 9.00416 0.351983 8.99966 0.472251C8.99516 0.592961 8.94693 0.706571 8.86559 0.788677L4.78439 4.87863C4.70141 4.96206 4.59022 5.006 4.47699 4.99934L4.47705 4.99933Z" fill="#6F52ED"/>
</svg>
