<svg width="15" height="15" viewBox="0 0 15 15" fill="none" xmlns="http://www.w3.org/2000/svg">
<path d="M12.5398 2.03999H11.3848V1.30499C11.3848 1.13683 11.238 0.98999 11.0698 0.98999C10.9017 0.98999 10.7548 1.13683 10.7548 1.30499V2.03999H4.24484V1.30499C4.24484 1.13683 4.09801 0.98999 3.92984 0.98999C3.76168 0.98999 3.61484 1.13683 3.61484 1.30499V2.03999H2.45984C1.36801 2.03999 0.464844 2.94316 0.464844 4.03499V12.015C0.464844 13.1068 1.36801 14.01 2.45984 14.01H12.5398C13.6317 14.01 14.5348 13.1068 14.5348 12.015V4.03499C14.5348 2.92182 13.6317 2.03999 12.5398 2.03999ZM2.45984 2.66999H3.61484V4.24499C3.61484 4.41315 3.76168 4.55999 3.92984 4.55999C4.09801 4.55999 4.24484 4.41315 4.24484 4.24499V2.66999H10.7548V4.24499C10.7548 4.41315 10.9017 4.55999 11.0698 4.55999C11.238 4.55999 11.3848 4.41315 11.3848 4.24499V2.66999H12.5398C13.2962 2.66999 13.9048 3.27865 13.9048 4.03499V6.21857H1.09484V4.03499C1.09484 3.27865 1.70351 2.66999 2.45984 2.66999ZM12.5398 13.38H2.45984C1.70351 13.38 1.09484 12.7713 1.09484 12.015V6.84857H13.9048V12.015C13.9048 12.7713 13.2962 13.38 12.5398 13.38Z" fill="black"/>
</svg>
