<svg width="18" height="15" viewBox="0 0 18 15" fill="none" xmlns="http://www.w3.org/2000/svg">
<path d="M16.8747 5.75004H14.25V3.74754C14.2493 3.61465 14.1776 3.4916 14.0622 3.4248L9.18748 0.552539C9.07147 0.485742 8.92803 0.485742 8.81202 0.552539L3.93726 3.4248C3.82195 3.4916 3.75022 3.61464 3.74952 3.74754V5.75004H1.12476C0.917346 5.75004 0.75 5.91808 0.75 6.1248V14.3753C0.75 14.4744 0.789375 14.57 0.859688 14.6404C0.930002 14.7107 1.02563 14.7501 1.12477 14.7501H16.8748C16.9739 14.7501 17.0695 14.7107 17.1399 14.6404C17.2102 14.5701 17.2495 14.4744 17.2495 14.3753V6.1248C17.2495 6.02566 17.2102 5.93004 17.1399 5.85971C17.0695 5.78939 16.9739 5.75002 16.8748 5.75002L16.8747 5.75004ZM1.4995 6.50028H3.7495V13.9998H1.4995V6.50028ZM4.49974 3.9648L8.99974 1.3098L13.4997 3.9648V13.9998H11.2497V9.87528C11.2497 9.77543 11.2104 9.68052 11.1401 9.61019C11.0697 9.53988 10.9741 9.4998 10.875 9.4998H7.12449C6.91778 9.4998 6.74973 9.66785 6.74973 9.87526V13.9998H4.49973L4.49974 3.9648ZM7.49998 13.9998V10.25H10.5002V13.9998H7.49998ZM16.5 13.9998H14.25V6.50028H16.5V13.9998Z" fill="black"/>
</svg>
