<svg width="10" height="14" viewBox="0 0 10 14" fill="none" xmlns="http://www.w3.org/2000/svg">
<path d="M4.99938 0.761963C2.44066 0.761963 0.359375 2.84324 0.359375 5.40196C0.359375 6.30947 0.583119 6.96071 1.05438 7.657L4.73438 13.097C4.79376 13.1851 4.89313 13.2376 4.99938 13.2376C5.10562 13.2376 5.20501 13.1851 5.26437 13.097L8.94437 7.657C9.41562 6.96075 9.63938 6.3095 9.63938 5.4026C9.63938 2.84388 7.5581 0.762603 4.99938 0.762603V0.761963ZM4.99938 1.40196C7.2125 1.40196 8.99938 3.18884 8.99938 5.40196C8.99938 6.21446 8.84 6.67321 8.41438 7.30196L4.99934 12.3525L1.5843 7.3026C1.15931 6.67385 0.999311 6.21447 0.999311 5.4026C0.999311 3.18948 2.78619 1.4026 4.99931 1.4026L4.99938 1.40196ZM4.99938 3.00196C3.76626 3.00196 2.75938 4.00884 2.75938 5.24196C2.75938 6.47508 3.76626 7.48196 4.99938 7.48196C6.2325 7.48196 7.23938 6.47508 7.23938 5.24196C7.23938 4.00884 6.2325 3.00196 4.99938 3.00196ZM4.99938 3.64196C5.88688 3.64196 6.59938 4.35446 6.59938 5.24196C6.59938 6.12947 5.88688 6.84196 4.99938 6.84196C4.11187 6.84196 3.39938 6.12947 3.39938 5.24196C3.39938 4.35446 4.11187 3.64196 4.99938 3.64196Z" fill="black"/>
</svg>
