<svg width="29" height="31" viewBox="0 0 29 31" fill="none" xmlns="http://www.w3.org/2000/svg">
<path d="M23.8991 16.9519L23.0042 10.1923C22.9849 10.0421 22.8892 9.91258 22.7524 9.84839L11.9061 4.80469L12.388 4.26702C12.5515 4.08538 12.5358 3.80565 12.3541 3.64219L9.40551 0.999935C9.31832 0.921223 9.20207 0.881264 9.08583 0.887318C8.96837 0.893373 8.85818 0.946655 8.78068 1.03384L1.11313 9.58922C0.949658 9.77086 0.9654 10.0506 1.14704 10.2141L4.09567 12.8563C4.1768 12.929 4.28215 12.9689 4.39114 12.9689C4.39961 12.9689 4.40688 12.9689 4.41536 12.9677C4.53282 12.9617 4.64301 12.9084 4.72051 12.8212L5.68564 11.7434L5.76192 11.8936L7.29859 15.4586C7.31918 15.5058 7.34703 15.5494 7.38215 15.5858L13.8667 22.5062C14.0351 22.6842 14.2252 22.8259 14.4298 22.9337C14.425 23.0438 14.4165 23.1528 14.4165 23.2654C14.4165 27.0425 17.4874 30.1146 21.2619 30.1146C25.0377 30.1146 28.1086 27.0437 28.1086 23.2679C28.1086 20.507 26.4266 18.0063 23.8994 16.9517L23.8991 16.9519ZM4.35702 11.9023L2.06836 9.85093L9.14504 1.9543L11.4337 4.00563L10.8512 4.65592C10.85 4.65713 10.8488 4.65713 10.8476 4.65834L5.45764 10.6683C5.4528 10.6732 5.45038 10.6804 5.44553 10.6865L4.35702 11.9023ZM8.08075 15.0385L6.56345 11.5207L6.32005 11.0375L11.2884 5.49376L22.1576 10.5495L22.9641 16.6395C22.0935 16.4179 21.178 16.3682 20.3025 16.4918L19.1037 14.5083C19.0383 14.3993 18.9293 14.3242 18.8046 14.3024L15.2334 13.6509C15.0445 13.6146 14.8531 13.7078 14.7623 13.8798L13.865 15.5763C13.7924 15.7131 13.7972 15.8778 13.8759 16.0098L15.9091 19.4186C15.9115 19.4234 15.9152 19.4283 15.9176 19.4331L16.5 20.4091C16.7568 20.8402 16.7313 21.3791 16.4371 21.7835C16.1137 22.2243 15.5434 22.4181 15.0227 22.234C14.8277 22.1686 14.6594 22.0596 14.5117 21.9022L8.08075 15.0385ZM14.764 15.7687L15.3937 14.5796L18.4489 15.1379L19.3837 16.6842C18.2467 17.0088 17.2089 17.6264 16.377 18.4728L14.764 15.7687ZM21.2619 29.2283C17.9753 29.2283 15.3016 26.5546 15.3016 23.2679C15.3016 23.2377 15.3052 23.2086 15.3052 23.1783C15.3452 23.1808 15.3839 23.188 15.4239 23.188C16.1008 23.188 16.7474 22.8587 17.1519 22.3052C17.6568 21.6138 17.6992 20.6911 17.2597 19.9548L16.8504 19.2682C17.7222 18.3067 18.8835 17.648 20.1587 17.4094C21.2061 17.2108 22.3238 17.3017 23.3399 17.6783C25.6625 18.538 27.2233 20.7845 27.2233 23.2679C27.2233 26.5545 24.5495 29.2282 21.262 29.2282L21.2619 29.2283Z" fill="#665F5E" stroke="#33D69F" stroke-width="0.8"/>
</svg>
