<?xml version="1.0" encoding="iso-8859-1"?>
<!-- Generator: Adobe Illustrator 19.0.0, SVG Export Plug-In . SVG Version: 6.00 Build 0)  -->
<svg fill="#ED5277" version="1.1" id="Layer_1" xmlns="http://www.w3.org/2000/svg" xmlns:xlink="http://www.w3.org/1999/xlink" x="0px" y="0px"
	 viewBox="0 0 330 330" style="enable-background:new 0 0 330 330;" xml:space="preserve">
<g id="XMLID_244_">
	<path id="XMLID_245_" d="M255,0c-8.284,0-15,6.716-15,15v285h-90V75c0-8.284-6.716-15-15-15s-15,6.716-15,15v240
		c0,8.284,6.716,15,15,15h120c8.284,0,15-6.716,15-15V15C270,6.716,263.284,0,255,0z"/>
	<path id="XMLID_307_" d="M180,255c0,8.284,6.716,15,15,15s15-6.716,15-15V15c0-8.284-6.716-15-15-15H75c-8.284,0-15,6.716-15,15
		v300c0,8.284,6.716,15,15,15s15-6.716,15-15V30h90V255z"/>
</g>
<g>
</g>
<g>
</g>
<g>
</g>
<g>
</g>
<g>
</g>
<g>
</g>
<g>
</g>
<g>
</g>
<g>
</g>
<g>
</g>
<g>
</g>
<g>
</g>
<g>
</g>
<g>
</g>
<g>
</g>
</svg>
