<svg width="31" height="31" viewBox="0 0 31 31" fill="none" xmlns="http://www.w3.org/2000/svg">
<path d="M29.3865 13.5949L17.0991 1.30742C16.2175 0.425846 14.785 0.425846 13.9023 1.30742L1.61612 13.5949C0.624364 14.5866 0.757571 15.4137 0.92587 15.8182C1.09298 16.2226 1.58341 16.902 2.98566 16.902H5.16778V30.3532H13.5632V21.6344H17.4382V30.3532H25.8336L25.8348 16.902H28.017C29.4192 16.902 29.9109 16.2226 30.078 15.8182C30.2463 15.4137 30.3783 14.5854 29.3865 13.5949H29.3865ZM23.8974 14.9645V28.4157H19.3769V19.6969H11.6269V28.4157H7.10528V14.9645H2.9857L15.2732 2.677C15.3991 2.55107 15.6037 2.55107 15.7297 2.677L28.0172 14.9645H23.8974Z" fill="#E55376"/>
</svg>
