<svg width="33" height="28" viewBox="0 0 33 28" fill="none" xmlns="http://www.w3.org/2000/svg">
<path d="M28.8826 13.0577L21.4902 17.6665C21.6078 17.363 21.6789 17.0349 21.6789 16.6876C21.6789 15.1796 20.4512 13.9532 18.9445 13.9532H11.2883C10.5363 13.9532 9.56699 14.3552 9.0338 14.887L7.43965 16.4812C7.33712 15.6745 6.65352 15.047 5.81817 15.047H2.82812C1.92306 15.047 1.1875 15.7825 1.1875 16.6876V25.4376C1.1875 26.3427 1.92306 27.0782 2.82812 27.0782H5.81817C6.53049 27.0782 7.13204 26.6202 7.35761 25.9845H18.3963C19.7402 25.9845 21.5763 25.279 22.5756 24.3808L31.1699 16.6426C31.5855 16.2311 31.8124 15.6829 31.8124 15.0991C31.8124 13.6526 30.3632 12.5164 28.8825 13.0579L28.8826 13.0577ZM6.36499 25.4376C6.36499 25.7384 6.12027 25.9845 5.81812 25.9845H2.82807C2.52592 25.9845 2.28119 25.7384 2.28119 25.4376V16.6876C2.28119 16.3868 2.52592 16.1407 2.82807 16.1407H5.81812C6.12027 16.1407 6.36499 16.3868 6.36499 16.6876V25.4376ZM30.4194 15.8483L21.8444 23.5675C21.0474 24.2853 19.4683 24.8909 18.3964 24.8909H7.45888V18.0085L9.80633 15.6611C10.1331 15.3343 10.8249 15.0472 11.287 15.0472H18.9433C19.8483 15.0472 20.5839 15.7828 20.5839 16.6879C20.5839 17.5929 19.8483 18.3285 18.9433 18.3285H13.219C12.9169 18.3285 12.6721 18.5732 12.6721 18.8754C12.6721 19.1775 12.9169 19.4222 13.219 19.4222H19.4903C20.1917 19.4222 21.2061 19.131 21.8009 18.7605L29.3066 14.0684C30.0763 13.8223 30.7189 14.3952 30.7189 15.0993C30.7189 15.3891 30.6055 15.6626 30.4195 15.8485L30.4194 15.8483Z" fill="#ED5277" stroke="#ED5277" stroke-width="0.5"/>
<path d="M23.0625 13.4062C26.6815 13.4062 29.625 10.4627 29.625 6.84375C29.625 3.22482 26.6814 0.28125 23.0625 0.28125C19.4436 0.28125 16.5 3.22482 16.5 6.84375C16.5 10.4627 19.4436 13.4062 23.0625 13.4062ZM23.0625 1.375C26.0785 1.375 28.5312 3.82773 28.5312 6.84375C28.5312 9.85977 26.0785 12.3125 23.0625 12.3125C20.0465 12.3125 17.5938 9.85977 17.5938 6.84375C17.5938 3.82773 20.0465 1.375 23.0625 1.375Z" fill="#ED5277" stroke="#ED5277" stroke-width="0.5"/>
</svg>
